<svg width="78" height="18" viewBox="0 0 78 18" fill="none" xmlns="http://www.w3.org/2000/svg">
<path d="M44.216 13.096C43.464 13.096 42.848 12.924 42.368 12.58C41.896 12.228 41.632 11.752 41.576 11.152H42.44C42.48 11.52 42.652 11.82 42.956 12.052C43.268 12.276 43.684 12.388 44.204 12.388C44.66 12.388 45.016 12.28 45.272 12.064C45.536 11.848 45.668 11.58 45.668 11.26C45.668 11.036 45.596 10.852 45.452 10.708C45.308 10.564 45.124 10.452 44.9 10.372C44.684 10.284 44.388 10.192 44.012 10.096C43.524 9.968 43.128 9.84 42.824 9.712C42.52 9.584 42.26 9.396 42.044 9.148C41.836 8.892 41.732 8.552 41.732 8.128C41.732 7.808 41.828 7.512 42.02 7.24C42.212 6.968 42.484 6.752 42.836 6.592C43.188 6.432 43.588 6.352 44.036 6.352C44.74 6.352 45.308 6.532 45.74 6.892C46.172 7.244 46.404 7.732 46.436 8.356H45.596C45.572 7.972 45.42 7.664 45.14 7.432C44.868 7.192 44.492 7.072 44.012 7.072C43.588 7.072 43.244 7.172 42.98 7.372C42.716 7.572 42.584 7.82 42.584 8.116C42.584 8.372 42.66 8.584 42.812 8.752C42.972 8.912 43.168 9.04 43.4 9.136C43.632 9.224 43.944 9.324 44.336 9.436C44.808 9.564 45.184 9.688 45.464 9.808C45.744 9.928 45.984 10.104 46.184 10.336C46.384 10.568 46.488 10.876 46.496 11.26C46.496 11.612 46.4 11.928 46.208 12.208C46.016 12.48 45.748 12.696 45.404 12.856C45.06 13.016 44.664 13.096 44.216 13.096ZM49.1692 7.156V11.224C49.1692 11.624 49.2452 11.9 49.3972 12.052C49.5492 12.204 49.8172 12.28 50.2012 12.28H50.9692V13H50.0692C49.4772 13 49.0372 12.864 48.7492 12.592C48.4612 12.312 48.3172 11.856 48.3172 11.224V7.156H47.4052V6.448H48.3172V4.804H49.1692V6.448H50.9692V7.156H49.1692ZM58.0305 6.448V13H57.1905V11.848C56.9985 12.256 56.7025 12.568 56.3025 12.784C55.9025 13 55.4545 13.108 54.9585 13.108C54.1745 13.108 53.5345 12.868 53.0385 12.388C52.5425 11.9 52.2945 11.196 52.2945 10.276V6.448H53.1225V10.18C53.1225 10.892 53.2985 11.436 53.6505 11.812C54.0105 12.188 54.4985 12.376 55.1145 12.376C55.7465 12.376 56.2505 12.176 56.6265 11.776C57.0025 11.376 57.1905 10.788 57.1905 10.012V6.448H58.0305ZM59.5643 9.712C59.5643 9.04 59.7003 8.452 59.9723 7.948C60.2443 7.436 60.6163 7.044 61.0883 6.772C61.5683 6.492 62.1083 6.352 62.7083 6.352C63.2843 6.352 63.8043 6.492 64.2683 6.772C64.7323 7.052 65.0723 7.416 65.2883 7.864V4.12H66.1283V13H65.2883V11.536C65.0883 11.992 64.7603 12.368 64.3043 12.664C63.8483 12.952 63.3123 13.096 62.6963 13.096C62.0963 13.096 61.5563 12.956 61.0763 12.676C60.6043 12.396 60.2323 12 59.9603 11.488C59.6963 10.976 59.5643 10.384 59.5643 9.712ZM65.2883 9.724C65.2883 9.196 65.1803 8.732 64.9643 8.332C64.7483 7.932 64.4523 7.624 64.0763 7.408C63.7083 7.192 63.3003 7.084 62.8523 7.084C62.3883 7.084 61.9723 7.188 61.6043 7.396C61.2363 7.604 60.9443 7.908 60.7283 8.308C60.5203 8.7 60.4163 9.168 60.4163 9.712C60.4163 10.248 60.5203 10.72 60.7283 11.128C60.9443 11.528 61.2363 11.836 61.6043 12.052C61.9723 12.26 62.3883 12.364 62.8523 12.364C63.3003 12.364 63.7083 12.256 64.0763 12.04C64.4523 11.824 64.7483 11.516 64.9643 11.116C65.1803 10.716 65.2883 10.252 65.2883 9.724ZM68.4659 5.212C68.2979 5.212 68.1539 5.152 68.0339 5.032C67.9139 4.912 67.8539 4.764 67.8539 4.588C67.8539 4.412 67.9139 4.268 68.0339 4.156C68.1539 4.036 68.2979 3.976 68.4659 3.976C68.6339 3.976 68.7779 4.036 68.8979 4.156C69.0179 4.268 69.0779 4.412 69.0779 4.588C69.0779 4.764 69.0179 4.912 68.8979 5.032C68.7779 5.152 68.6339 5.212 68.4659 5.212ZM68.8859 6.448V13H68.0459V6.448H68.8859ZM73.6561 13.096C73.0401 13.096 72.4841 12.96 71.9881 12.688C71.5001 12.408 71.1121 12.016 70.8241 11.512C70.5441 11 70.4041 10.404 70.4041 9.724C70.4041 9.044 70.5481 8.452 70.8361 7.948C71.1241 7.436 71.5161 7.044 72.0121 6.772C72.5081 6.492 73.0641 6.352 73.6801 6.352C74.2961 6.352 74.8521 6.492 75.3481 6.772C75.8521 7.044 76.2441 7.436 76.5241 7.948C76.8121 8.452 76.9561 9.044 76.9561 9.724C76.9561 10.396 76.8121 10.988 76.5241 11.5C76.2361 12.012 75.8401 12.408 75.3361 12.688C74.8321 12.96 74.2721 13.096 73.6561 13.096ZM73.6561 12.364C74.0881 12.364 74.4881 12.268 74.8561 12.076C75.2241 11.876 75.5201 11.58 75.7441 11.188C75.9761 10.788 76.0921 10.3 76.0921 9.724C76.0921 9.148 75.9801 8.664 75.7561 8.272C75.5321 7.872 75.2361 7.576 74.8681 7.384C74.5001 7.184 74.1001 7.084 73.6681 7.084C73.2361 7.084 72.8361 7.184 72.4681 7.384C72.1001 7.576 71.8041 7.872 71.5801 8.272C71.3641 8.664 71.2561 9.148 71.2561 9.724C71.2561 10.3 71.3641 10.788 71.5801 11.188C71.8041 11.58 72.0961 11.876 72.4561 12.076C72.8241 12.268 73.2241 12.364 73.6561 12.364Z" fill="black"/>
<path d="M9.288 6.232C10.12 6.232 10.78 6.484 11.268 6.988C11.764 7.492 12.012 8.192 12.012 9.088V13H9.972V9.364C9.972 8.932 9.856 8.6 9.624 8.368C9.4 8.128 9.088 8.008 8.688 8.008C8.288 8.008 7.972 8.128 7.74 8.368C7.516 8.6 7.404 8.932 7.404 9.364V13H5.364V9.364C5.364 8.932 5.248 8.6 5.016 8.368C4.792 8.128 4.48 8.008 4.08 8.008C3.68 8.008 3.364 8.128 3.132 8.368C2.908 8.6 2.796 8.932 2.796 9.364V13H0.744V6.304H2.796V7.144C3.004 6.864 3.276 6.644 3.612 6.484C3.948 6.316 4.328 6.232 4.752 6.232C5.256 6.232 5.704 6.34 6.096 6.556C6.496 6.772 6.808 7.08 7.032 7.48C7.264 7.112 7.58 6.812 7.98 6.58C8.38 6.348 8.816 6.232 9.288 6.232ZM19.7591 9.544C19.7591 9.736 19.7471 9.936 19.7231 10.144H15.0791C15.1111 10.56 15.2431 10.88 15.4751 11.104C15.7151 11.32 16.0071 11.428 16.3511 11.428C16.8631 11.428 17.2191 11.212 17.4191 10.78H19.6031C19.4911 11.22 19.2871 11.616 18.9911 11.968C18.7031 12.32 18.3391 12.596 17.8991 12.796C17.4591 12.996 16.9671 13.096 16.4231 13.096C15.7671 13.096 15.1831 12.956 14.6711 12.676C14.1591 12.396 13.7591 11.996 13.4711 11.476C13.1831 10.956 13.0391 10.348 13.0391 9.652C13.0391 8.956 13.1791 8.348 13.4591 7.828C13.7471 7.308 14.1471 6.908 14.6591 6.628C15.1711 6.348 15.7591 6.208 16.4231 6.208C17.0711 6.208 17.6471 6.344 18.1511 6.616C18.6551 6.888 19.0471 7.276 19.3271 7.78C19.6151 8.284 19.7591 8.872 19.7591 9.544ZM17.6591 9.004C17.6591 8.652 17.5391 8.372 17.2991 8.164C17.0591 7.956 16.7591 7.852 16.3991 7.852C16.0551 7.852 15.7631 7.952 15.5231 8.152C15.2911 8.352 15.1471 8.636 15.0911 9.004H17.6591ZM29.3857 6.232C30.2177 6.232 30.8777 6.484 31.3657 6.988C31.8617 7.492 32.1097 8.192 32.1097 9.088V13H30.0697V9.364C30.0697 8.932 29.9537 8.6 29.7217 8.368C29.4977 8.128 29.1857 8.008 28.7857 8.008C28.3857 8.008 28.0697 8.128 27.8377 8.368C27.6137 8.6 27.5017 8.932 27.5017 9.364V13H25.4617V9.364C25.4617 8.932 25.3457 8.6 25.1137 8.368C24.8897 8.128 24.5777 8.008 24.1777 8.008C23.7777 8.008 23.4617 8.128 23.2297 8.368C23.0057 8.6 22.8937 8.932 22.8937 9.364V13H20.8417V6.304H22.8937V7.144C23.1017 6.864 23.3737 6.644 23.7097 6.484C24.0457 6.316 24.4257 6.232 24.8497 6.232C25.3537 6.232 25.8017 6.34 26.1937 6.556C26.5937 6.772 26.9057 7.08 27.1297 7.48C27.3617 7.112 27.6777 6.812 28.0777 6.58C28.4777 6.348 28.9137 6.232 29.3857 6.232ZM39.8568 9.544C39.8568 9.736 39.8448 9.936 39.8208 10.144H35.1768C35.2088 10.56 35.3408 10.88 35.5728 11.104C35.8128 11.32 36.1048 11.428 36.4488 11.428C36.9608 11.428 37.3168 11.212 37.5168 10.78H39.7008C39.5888 11.22 39.3848 11.616 39.0888 11.968C38.8008 12.32 38.4368 12.596 37.9968 12.796C37.5568 12.996 37.0648 13.096 36.5208 13.096C35.8648 13.096 35.2808 12.956 34.7688 12.676C34.2568 12.396 33.8568 11.996 33.5688 11.476C33.2808 10.956 33.1368 10.348 33.1368 9.652C33.1368 8.956 33.2768 8.348 33.5568 7.828C33.8448 7.308 34.2448 6.908 34.7568 6.628C35.2688 6.348 35.8568 6.208 36.5208 6.208C37.1688 6.208 37.7448 6.344 38.2488 6.616C38.7528 6.888 39.1448 7.276 39.4248 7.78C39.7128 8.284 39.8568 8.872 39.8568 9.544ZM37.7568 9.004C37.7568 8.652 37.6368 8.372 37.3968 8.164C37.1568 7.956 36.8568 7.852 36.4968 7.852C36.1528 7.852 35.8608 7.952 35.6208 8.152C35.3888 8.352 35.2448 8.636 35.1888 9.004H37.7568Z" fill="black"/>
</svg>
